<svg width="516" height="283" viewBox="0 0 516 283" fill="none" xmlns="http://www.w3.org/2000/svg">
<g clip-path="url(#clip0_1337_11279)">
<path d="M81.3993 224.288V253.723H76.5649V240.839H62.7095V253.723H57.875V224.288H62.7095V236.912H76.5649V224.288H81.3993Z" fill="#43454E"/>
<path d="M93.3772 252.608C91.6016 251.61 90.2018 250.197 89.1778 248.37C88.1669 246.542 87.6484 244.443 87.6484 242.032C87.6484 239.621 88.1669 237.56 89.2167 235.72C90.2666 233.879 91.6923 232.467 93.4939 231.482C95.2955 230.497 97.3174 230.004 99.5467 230.004C101.776 230.004 103.798 230.497 105.6 231.482C107.401 232.467 108.827 233.879 109.877 235.72C110.927 237.56 111.445 239.66 111.445 242.032C111.445 244.404 110.914 246.503 109.838 248.344C108.762 250.184 107.297 251.597 105.457 252.595C103.604 253.593 101.569 254.099 99.3393 254.099C97.11 254.099 95.1399 253.593 93.3643 252.595L93.3772 252.608ZM102.852 249.031C103.941 248.435 104.822 247.553 105.496 246.361C106.17 245.168 106.507 243.73 106.507 242.045C106.507 240.36 106.183 238.921 105.535 237.742C104.887 236.575 104.018 235.694 102.955 235.098C101.88 234.502 100.726 234.203 99.4819 234.203C98.2376 234.203 97.0841 234.502 96.0343 235.098C94.9714 235.694 94.129 236.575 93.5198 237.742C92.8977 238.908 92.5866 240.347 92.5866 242.045C92.5866 244.559 93.2347 246.503 94.5178 247.864C95.801 249.238 97.4211 249.912 99.3653 249.912C100.61 249.912 101.776 249.614 102.865 249.018L102.852 249.031Z" fill="#43454E"/>
<path d="M117.59 235.707C118.562 233.879 119.91 232.48 121.633 231.495C123.357 230.509 125.327 230.017 127.57 230.017C130.395 230.017 132.728 230.691 134.582 232.026C136.435 233.374 137.679 235.279 138.327 237.768H133.117C132.689 236.614 132.015 235.707 131.082 235.059C130.149 234.411 128.982 234.087 127.57 234.087C125.6 234.087 124.018 234.787 122.852 236.186C121.685 237.586 121.089 239.543 121.089 242.058C121.089 244.572 121.672 246.529 122.852 247.942C124.018 249.355 125.6 250.055 127.57 250.055C130.369 250.055 132.21 248.824 133.117 246.374H138.327C137.653 248.746 136.383 250.625 134.517 252.025C132.65 253.425 130.343 254.125 127.57 254.125C125.34 254.125 123.357 253.619 121.633 252.621C119.91 251.623 118.562 250.21 117.59 248.383C116.618 246.555 116.125 244.456 116.125 242.045C116.125 239.634 116.618 237.534 117.59 235.707Z" fill="#43454E"/>
<path d="M161.474 231.158C162.874 231.922 163.976 233.05 164.779 234.553C165.583 236.057 165.985 237.858 165.985 239.971V253.736H161.202V240.684C161.202 238.597 160.684 236.99 159.634 235.875C158.584 234.761 157.158 234.203 155.357 234.203C153.555 234.203 152.117 234.761 151.054 235.875C149.991 236.99 149.459 238.597 149.459 240.684V253.736H144.625V222.396H149.459V233.115C150.276 232.13 151.313 231.365 152.57 230.834C153.827 230.302 155.201 230.03 156.705 230.03C158.48 230.03 160.075 230.406 161.474 231.171V231.158Z" fill="#43454E"/>
<path d="M177.145 253.114C175.693 252.453 174.539 251.545 173.697 250.405C172.854 249.264 172.401 247.981 172.336 246.568H177.339C177.43 247.553 177.896 248.383 178.752 249.044C179.607 249.705 180.696 250.042 181.992 250.042C183.288 250.042 184.403 249.783 185.141 249.264C185.893 248.746 186.269 248.072 186.269 247.255C186.269 246.374 185.854 245.726 185.025 245.311C184.195 244.896 182.873 244.417 181.059 243.911C179.309 243.432 177.883 242.965 176.782 242.511C175.68 242.058 174.734 241.371 173.917 240.438C173.114 239.504 172.712 238.273 172.712 236.757C172.712 235.512 173.075 234.385 173.813 233.348C174.552 232.324 175.602 231.507 176.963 230.911C178.337 230.315 179.905 230.017 181.681 230.017C184.338 230.017 186.476 230.691 188.097 232.026C189.717 233.374 190.585 235.201 190.702 237.508H185.867C185.777 236.459 185.362 235.629 184.597 235.007C183.832 234.385 182.808 234.074 181.499 234.074C180.19 234.074 179.257 234.307 178.583 234.787C177.909 235.266 177.572 235.901 177.572 236.692C177.572 237.314 177.793 237.832 178.246 238.26C178.7 238.688 179.244 239.012 179.892 239.258C180.54 239.504 181.499 239.803 182.77 240.165C184.468 240.619 185.854 241.073 186.943 241.539C188.032 242.006 188.965 242.693 189.756 243.6C190.546 244.507 190.961 245.7 190.987 247.203C190.987 248.525 190.624 249.718 189.885 250.768C189.146 251.818 188.11 252.634 186.775 253.23C185.427 253.826 183.858 254.125 182.057 254.125C180.255 254.125 178.57 253.788 177.119 253.127L177.145 253.114Z" fill="#43454E"/>
<path d="M197.566 235.707C198.538 233.879 199.886 232.48 201.61 231.495C203.334 230.509 205.304 230.017 207.546 230.017C210.372 230.017 212.705 230.691 214.558 232.026C216.412 233.374 217.656 235.279 218.304 237.768H213.094C212.666 236.614 211.992 235.707 211.059 235.059C210.125 234.411 208.959 234.087 207.546 234.087C205.576 234.087 203.995 234.787 202.828 236.186C201.662 237.586 201.066 239.543 201.066 242.058C201.066 244.572 201.649 246.529 202.828 247.942C203.995 249.355 205.576 250.055 207.546 250.055C210.346 250.055 212.186 248.824 213.094 246.374H218.304C217.63 248.746 216.36 250.625 214.493 252.025C212.627 253.425 210.32 254.125 207.546 254.125C205.317 254.125 203.334 253.619 201.61 252.621C199.886 251.623 198.538 250.21 197.566 248.383C196.594 246.555 196.102 244.456 196.102 242.045C196.102 239.634 196.594 237.534 197.566 235.707Z" fill="#43454E"/>
<path d="M241.443 231.158C242.843 231.922 243.945 233.05 244.748 234.553C245.552 236.057 245.954 237.858 245.954 239.971V253.736H241.171V240.684C241.171 238.597 240.653 236.99 239.603 235.875C238.553 234.761 237.127 234.203 235.326 234.203C233.524 234.203 232.085 234.761 231.022 235.875C229.96 236.99 229.428 238.597 229.428 240.684V253.736H224.594V222.396H229.428V233.115C230.245 232.13 231.282 231.365 232.539 230.834C233.796 230.302 235.17 230.03 236.673 230.03C238.449 230.03 240.043 230.406 241.443 231.171V231.158Z" fill="#43454E"/>
<path d="M274.714 230.393V253.736H269.88V250.988C269.115 251.947 268.117 252.699 266.899 253.256C265.667 253.801 264.358 254.086 262.984 254.086C261.144 254.086 259.498 253.71 258.046 252.945C256.594 252.18 255.454 251.053 254.611 249.562C253.782 248.072 253.367 246.257 253.367 244.145V230.419H258.15V243.419C258.15 245.505 258.668 247.113 259.718 248.227C260.768 249.342 262.194 249.899 263.995 249.899C265.797 249.899 267.236 249.342 268.298 248.227C269.361 247.113 269.893 245.505 269.893 243.419V230.419H274.727L274.714 230.393Z" fill="#43454E"/>
<path d="M287.389 222.383V253.723H282.555V222.383H287.389Z" fill="#43454E"/>
<path d="M316.449 243.859H298.615C298.758 245.726 299.445 247.216 300.689 248.344C301.933 249.472 303.45 250.042 305.264 250.042C307.856 250.042 309.697 248.953 310.773 246.776H315.983C315.283 248.927 314 250.677 312.146 252.051C310.293 253.425 307.999 254.099 305.264 254.099C303.035 254.099 301.039 253.593 299.276 252.595C297.513 251.597 296.126 250.184 295.128 248.357C294.13 246.529 293.625 244.43 293.625 242.019C293.625 239.608 294.118 237.508 295.09 235.681C296.062 233.853 297.436 232.454 299.198 231.469C300.961 230.484 302.983 229.991 305.277 229.991C307.571 229.991 309.438 230.471 311.161 231.43C312.885 232.389 314.22 233.737 315.192 235.474C316.151 237.21 316.631 239.206 316.631 241.462C316.631 242.343 316.579 243.134 316.462 243.833L316.449 243.859ZM311.576 239.958C311.55 238.182 310.915 236.757 309.671 235.681C308.427 234.605 306.884 234.074 305.057 234.074C303.385 234.074 301.959 234.605 300.78 235.668C299.587 236.731 298.887 238.157 298.667 239.971H311.589L311.576 239.958Z" fill="#43454E"/>
<path d="M353.074 247.709H340.748L338.636 253.723H333.594L344.144 224.236H349.73L360.281 253.723H355.2L353.087 247.709H353.074ZM351.726 243.769L346.944 230.082L342.109 243.769H351.726Z" fill="#43454E"/>
<path d="M366.196 235.733C367.168 233.931 368.503 232.518 370.175 231.52C371.86 230.522 373.714 230.017 375.749 230.017C377.589 230.017 379.183 230.38 380.557 231.093C381.931 231.806 383.02 232.713 383.836 233.789V230.406H388.71V253.749H383.836V250.275C383.02 251.377 381.905 252.297 380.492 253.023C379.08 253.762 377.472 254.125 375.658 254.125C373.649 254.125 371.821 253.606 370.149 252.582C368.477 251.545 367.168 250.107 366.183 248.266C365.211 246.413 364.719 244.326 364.719 241.98C364.719 239.634 365.211 237.56 366.183 235.759L366.196 235.733ZM382.838 237.845C382.177 236.653 381.309 235.759 380.233 235.137C379.157 234.514 378.004 234.203 376.76 234.203C375.515 234.203 374.362 234.502 373.286 235.111C372.21 235.72 371.342 236.614 370.681 237.781C370.02 238.947 369.683 240.347 369.683 241.954C369.683 243.561 370.02 244.974 370.681 246.192C371.342 247.411 372.223 248.331 373.312 248.966C374.401 249.601 375.554 249.925 376.76 249.925C377.965 249.925 379.157 249.614 380.233 248.992C381.309 248.37 382.177 247.463 382.838 246.257C383.499 245.052 383.836 243.652 383.836 242.045C383.836 240.438 383.499 239.038 382.838 237.845Z" fill="#43454E"/>
<path d="M401.366 222.383V253.723H396.531V222.383H401.366Z" fill="#43454E"/>
<path d="M430.426 243.859H412.592C412.734 245.726 413.421 247.216 414.665 248.344C415.91 249.472 417.426 250.042 419.241 250.042C421.833 250.042 423.673 248.953 424.749 246.776H429.959C429.26 248.927 427.976 250.677 426.123 252.051C424.27 253.425 421.975 254.099 419.241 254.099C417.011 254.099 415.015 253.593 413.253 252.595C411.49 251.597 410.103 250.184 409.105 248.357C408.107 246.529 407.602 244.43 407.602 242.019C407.602 239.608 408.094 237.508 409.066 235.681C410.038 233.853 411.412 232.454 413.175 231.469C414.938 230.484 416.959 229.991 419.254 229.991C421.548 229.991 423.414 230.471 425.138 231.43C426.862 232.389 428.197 233.737 429.169 235.474C430.128 237.21 430.607 239.206 430.607 241.462C430.607 242.343 430.556 243.134 430.439 243.833L430.426 243.859ZM425.553 239.958C425.527 238.182 424.892 236.757 423.647 235.681C422.403 234.605 420.861 234.074 419.033 234.074C417.361 234.074 415.936 234.605 414.756 235.668C413.564 236.731 412.864 238.157 412.643 239.971H425.566L425.553 239.958Z" fill="#43454E"/>
<path d="M453.54 231.158C454.992 231.922 456.132 233.05 456.949 234.553C457.765 236.057 458.18 237.858 458.18 239.971V253.736H453.397V240.684C453.397 238.597 452.879 236.99 451.829 235.875C450.779 234.761 449.354 234.203 447.552 234.203C445.75 234.203 444.312 234.761 443.249 235.875C442.186 236.99 441.655 238.597 441.655 240.684V253.736H436.82V230.393H441.655V233.063C442.445 232.104 443.456 231.352 444.688 230.821C445.919 230.289 447.228 230.017 448.602 230.017C450.442 230.017 452.075 230.393 453.54 231.158Z" fill="#43454E"/>
<path d="M59.7313 268.758V277.623C59.7313 278.867 60.0294 279.788 60.6515 280.397C61.2736 281.006 62.1032 281.304 63.1919 281.304C64.2806 281.304 65.1101 281.006 65.7193 280.397C66.3285 279.788 66.6395 278.867 66.6395 277.623V268.758H68.467V277.597C68.467 278.764 68.2337 279.749 67.7671 280.539C67.3005 281.343 66.6654 281.926 65.8748 282.315C65.0712 282.704 64.1899 282.898 63.1919 282.898C62.1939 282.898 61.3125 282.704 60.5089 282.315C59.7054 281.926 59.0832 281.33 58.6166 280.539C58.15 279.749 57.9297 278.764 57.9297 277.597V268.758H59.7572H59.7313Z" fill="#43454E"/>
<path d="M85.4102 282.756H83.5827L76.2338 271.609V282.756H74.4062V268.732H76.2338L83.5827 279.865V268.732H85.4102V282.756Z" fill="#43454E"/>
<path d="M93.2338 268.758V282.756H91.4062V268.758H93.2338Z" fill="#43454E"/>
<path d="M110.814 268.758L105.526 282.756H103.413L98.125 268.758H100.069L104.463 280.837L108.857 268.758H110.788H110.814Z" fill="#43454E"/>
<path d="M117.554 270.248V274.927H122.661V276.431H117.554V281.252H123.257V282.756H115.727V268.732H123.257V270.235H117.554V270.248Z" fill="#43454E"/>
<path d="M136.289 282.756L132.958 277.027H130.742V282.756H128.914V268.758H133.437C134.5 268.758 135.395 268.939 136.12 269.302C136.846 269.665 137.391 270.157 137.754 270.767C138.116 271.389 138.298 272.089 138.298 272.879C138.298 273.838 138.026 274.694 137.468 275.433C136.911 276.171 136.082 276.664 134.967 276.897L138.479 282.769H136.289V282.756ZM130.742 275.575H133.437C134.423 275.575 135.174 275.329 135.667 274.836C136.159 274.344 136.406 273.696 136.406 272.879C136.406 272.063 136.159 271.402 135.667 270.948C135.174 270.494 134.435 270.261 133.425 270.261H130.729V275.562L130.742 275.575Z" fill="#43454E"/>
<path d="M145.989 282.406C145.263 282.082 144.693 281.628 144.265 281.045C143.838 280.462 143.63 279.788 143.617 279.023H145.561C145.626 279.684 145.898 280.228 146.378 280.682C146.857 281.135 147.544 281.356 148.452 281.356C149.359 281.356 150.007 281.135 150.512 280.708C151.018 280.267 151.264 279.71 151.264 279.036C151.264 278.504 151.122 278.064 150.824 277.727C150.525 277.39 150.163 277.143 149.722 276.962C149.281 276.794 148.685 276.599 147.933 276.405C147.013 276.158 146.274 275.925 145.717 275.679C145.16 275.433 144.68 275.057 144.291 274.538C143.889 274.02 143.695 273.333 143.695 272.465C143.695 271.7 143.889 271.026 144.278 270.43C144.667 269.833 145.211 269.38 145.911 269.069C146.611 268.758 147.428 268.589 148.335 268.589C149.644 268.589 150.72 268.913 151.562 269.574C152.405 270.235 152.871 271.104 152.975 272.179H150.966C150.901 271.648 150.616 271.168 150.124 270.767C149.631 270.365 148.97 270.157 148.154 270.157C147.389 270.157 146.767 270.352 146.287 270.754C145.808 271.143 145.561 271.7 145.561 272.413C145.561 272.918 145.704 273.333 145.989 273.657C146.274 273.981 146.637 274.227 147.052 274.396C147.48 274.564 148.063 274.759 148.828 274.966C149.748 275.225 150.5 275.472 151.057 275.718C151.614 275.964 152.107 276.353 152.508 276.858C152.91 277.377 153.105 278.077 153.105 278.958C153.105 279.645 152.923 280.28 152.56 280.889C152.197 281.485 151.666 281.978 150.953 282.354C150.24 282.73 149.411 282.911 148.439 282.911C147.467 282.911 146.689 282.743 145.963 282.419L145.989 282.406Z" fill="#43454E"/>
<path d="M160.531 268.758V282.756H158.703V268.758H160.531Z" fill="#43454E"/>
<path d="M175.162 268.758V270.248H171.351V282.769H169.524V270.248H165.688V268.758H175.175H175.162Z" fill="#43454E"/>
<path d="M190.106 268.758L185.543 277.481V282.769H183.716V277.481L179.141 268.758H181.176L184.636 275.847L188.097 268.758H190.132H190.106Z" fill="#43454E"/>
<path d="M205.981 281.991C204.906 281.382 204.063 280.526 203.441 279.438C202.819 278.349 202.508 277.118 202.508 275.757C202.508 274.396 202.819 273.164 203.441 272.076C204.063 270.987 204.906 270.132 205.981 269.522C207.057 268.913 208.237 268.602 209.533 268.602C210.829 268.602 212.034 268.913 213.11 269.522C214.186 270.132 215.028 270.974 215.637 272.063C216.26 273.151 216.558 274.383 216.558 275.757C216.558 277.131 216.247 278.362 215.637 279.451C215.015 280.539 214.173 281.382 213.11 281.991C212.034 282.6 210.842 282.911 209.533 282.911C208.224 282.911 207.044 282.613 205.981 281.991ZM212.177 280.63C212.954 280.176 213.577 279.528 214.03 278.686C214.484 277.843 214.704 276.858 214.704 275.757C214.704 274.655 214.484 273.657 214.03 272.814C213.577 271.972 212.967 271.337 212.19 270.87C211.412 270.417 210.531 270.183 209.533 270.183C208.535 270.183 207.653 270.417 206.876 270.87C206.098 271.324 205.489 271.972 205.035 272.814C204.582 273.657 204.361 274.629 204.361 275.757C204.361 276.884 204.582 277.843 205.035 278.686C205.489 279.528 206.098 280.176 206.889 280.63C207.666 281.084 208.548 281.317 209.533 281.317C210.518 281.317 211.386 281.084 212.177 280.63Z" fill="#43454E"/>
<path d="M229.779 268.758V270.248H223.687V274.966H228.625V276.457H223.687V282.769H221.859V268.771H229.779V268.758Z" fill="#43454E"/>
<path d="M251.429 279.645H245.324L244.197 282.756H242.266L247.333 268.835H249.446L254.488 282.756H252.557L251.429 279.645ZM250.898 278.154L248.37 271.078L245.843 278.154H250.911H250.898Z" fill="#43454E"/>
<path d="M267.744 275.757C266.94 276.521 265.735 276.91 264.102 276.91H261.406V282.756H259.578V268.758H264.102C265.683 268.758 266.888 269.134 267.705 269.898C268.534 270.663 268.936 271.648 268.936 272.853C268.936 274.059 268.534 274.992 267.744 275.757ZM266.344 274.746C266.823 274.305 267.07 273.67 267.07 272.853C267.07 271.13 266.085 270.261 264.102 270.261H261.406V275.407H264.102C265.125 275.407 265.864 275.186 266.357 274.746H266.344Z" fill="#43454E"/>
<path d="M282.275 275.757C281.471 276.521 280.266 276.91 278.633 276.91H275.937V282.756H274.109V268.758H278.633C280.214 268.758 281.419 269.134 282.236 269.898C283.065 270.663 283.467 271.648 283.467 272.853C283.467 274.059 283.065 274.992 282.275 275.757ZM280.875 274.746C281.355 274.305 281.601 273.67 281.601 272.853C281.601 271.13 280.616 270.261 278.633 270.261H275.937V275.407H278.633C279.657 275.407 280.395 275.186 280.888 274.746H280.875Z" fill="#43454E"/>
<path d="M290.453 281.278H295.352V282.769H288.625V268.771H290.453V281.291V281.278Z" fill="#43454E"/>
<path d="M302.023 268.758V282.756H300.195V268.758H302.023Z" fill="#43454E"/>
<path d="M309.851 270.248V274.927H314.958V276.431H309.851V281.252H315.554V282.756H308.023V268.732H315.554V270.235H309.851V270.248Z" fill="#43454E"/>
<path d="M329.555 269.613C330.67 270.183 331.525 271 332.122 272.05C332.718 273.113 333.016 274.357 333.016 275.783C333.016 277.208 332.718 278.453 332.122 279.515C331.525 280.565 330.67 281.369 329.555 281.926C328.441 282.483 327.119 282.756 325.589 282.756H321.234V268.758H325.589C327.119 268.758 328.441 269.043 329.555 269.613ZM329.724 279.813C330.67 278.854 331.15 277.506 331.15 275.783C331.15 274.059 330.67 272.685 329.711 271.7C328.752 270.728 327.378 270.235 325.576 270.235H323.049V281.239H325.576C327.391 281.239 328.765 280.76 329.711 279.801L329.724 279.813Z" fill="#43454E"/>
<path d="M348.544 282.406C347.818 282.082 347.235 281.628 346.82 281.045C346.405 280.462 346.185 279.788 346.172 279.023H348.116C348.181 279.684 348.453 280.228 348.933 280.682C349.412 281.135 350.099 281.356 351.006 281.356C351.914 281.356 352.562 281.135 353.067 280.708C353.573 280.28 353.819 279.71 353.819 279.036C353.819 278.504 353.676 278.064 353.378 277.727C353.08 277.39 352.717 277.143 352.277 276.962C351.836 276.794 351.24 276.599 350.488 276.405C349.568 276.158 348.829 275.925 348.272 275.679C347.714 275.433 347.235 275.057 346.846 274.538C346.457 274.02 346.25 273.333 346.25 272.465C346.25 271.7 346.444 271.026 346.833 270.43C347.222 269.833 347.766 269.38 348.466 269.069C349.166 268.745 349.982 268.589 350.89 268.589C352.199 268.589 353.275 268.913 354.117 269.574C354.959 270.235 355.426 271.104 355.53 272.179H353.521C353.456 271.648 353.171 271.168 352.678 270.767C352.186 270.365 351.525 270.157 350.708 270.157C349.944 270.157 349.321 270.352 348.842 270.754C348.362 271.155 348.116 271.7 348.116 272.413C348.116 272.918 348.259 273.333 348.544 273.657C348.829 273.981 349.192 274.227 349.607 274.396C350.034 274.564 350.618 274.759 351.382 274.966C352.302 275.225 353.054 275.472 353.612 275.718C354.169 275.964 354.661 276.353 355.063 276.858C355.465 277.377 355.659 278.077 355.659 278.958C355.659 279.645 355.478 280.28 355.115 280.889C354.752 281.485 354.221 281.978 353.508 282.354C352.795 282.73 351.965 282.911 350.993 282.911C350.021 282.911 349.244 282.743 348.518 282.419L348.544 282.406Z" fill="#43454E"/>
<path d="M361.506 272.063C362.115 270.974 362.958 270.119 364.034 269.496C365.096 268.887 366.276 268.576 367.585 268.576C369.114 268.576 370.449 268.952 371.577 269.678C372.718 270.417 373.547 271.466 374.065 272.814H371.875C371.486 271.972 370.929 271.324 370.203 270.87C369.477 270.417 368.596 270.183 367.585 270.183C366.574 270.183 365.731 270.417 364.954 270.87C364.176 271.324 363.567 271.972 363.126 272.814C362.686 273.657 362.465 274.629 362.465 275.757C362.465 276.884 362.686 277.843 363.126 278.673C363.567 279.515 364.176 280.15 364.954 280.617C365.731 281.071 366.613 281.304 367.585 281.304C368.557 281.304 369.477 281.084 370.203 280.63C370.929 280.176 371.499 279.541 371.875 278.686H374.065C373.547 280.021 372.718 281.058 371.577 281.784C370.436 282.509 369.101 282.872 367.585 282.872C366.289 282.872 365.109 282.574 364.034 281.952C362.971 281.343 362.128 280.5 361.506 279.412C360.884 278.323 360.586 277.105 360.586 275.731C360.586 274.357 360.897 273.138 361.506 272.05V272.063Z" fill="#43454E"/>
<path d="M381.499 268.758V282.756H379.672V268.758H381.499Z" fill="#43454E"/>
<path d="M389.328 270.248V274.927H394.434V276.431H389.328V281.252H395.03V282.756H387.5V268.732H395.03V270.235H389.328V270.248Z" fill="#43454E"/>
<path d="M411.715 282.756H409.887L402.538 271.609V282.756H400.711V268.732H402.538L409.887 279.865V268.732H411.715V282.756Z" fill="#43454E"/>
<path d="M417.959 272.063C418.568 270.974 419.411 270.119 420.487 269.496C421.55 268.887 422.729 268.576 424.038 268.576C425.567 268.576 426.902 268.952 428.03 269.678C429.171 270.417 430 271.466 430.519 272.814H428.328C427.939 271.972 427.382 271.324 426.656 270.87C425.93 270.417 425.049 270.183 424.038 270.183C423.027 270.183 422.185 270.417 421.407 270.87C420.629 271.324 420.02 271.972 419.579 272.814C419.139 273.657 418.918 274.629 418.918 275.757C418.918 276.884 419.139 277.843 419.579 278.673C420.02 279.515 420.629 280.15 421.407 280.617C422.185 281.071 423.066 281.304 424.038 281.304C425.01 281.304 425.93 281.084 426.656 280.63C427.382 280.176 427.952 279.541 428.328 278.686H430.519C430 280.021 429.171 281.058 428.03 281.784C426.889 282.509 425.554 282.872 424.038 282.872C422.742 282.872 421.562 282.574 420.487 281.952C419.424 281.343 418.581 280.5 417.959 279.412C417.337 278.323 417.039 277.105 417.039 275.731C417.039 274.357 417.35 273.138 417.959 272.05V272.063Z" fill="#43454E"/>
<path d="M437.945 270.248V274.927H443.051V276.431H437.945V281.252H443.648V282.756H436.117V268.732H443.648V270.235H437.945V270.248Z" fill="#43454E"/>
<path d="M451.286 282.406C450.56 282.082 449.977 281.628 449.562 281.045C449.147 280.462 448.927 279.788 448.914 279.023H450.858C450.923 279.684 451.195 280.228 451.675 280.682C452.154 281.135 452.841 281.356 453.749 281.356C454.656 281.356 455.304 281.135 455.809 280.708C456.315 280.28 456.561 279.71 456.561 279.036C456.561 278.504 456.419 278.064 456.12 277.727C455.822 277.39 455.459 277.143 455.019 276.962C454.578 276.794 453.982 276.599 453.23 276.405C452.31 276.158 451.571 275.925 451.014 275.679C450.456 275.433 449.977 275.057 449.588 274.538C449.199 274.02 448.992 273.333 448.992 272.465C448.992 271.7 449.186 271.026 449.575 270.43C449.964 269.833 450.508 269.38 451.208 269.069C451.908 268.745 452.725 268.589 453.632 268.589C454.941 268.589 456.017 268.913 456.859 269.574C457.702 270.235 458.168 271.104 458.272 272.179H456.263C456.198 271.648 455.913 271.168 455.421 270.767C454.928 270.365 454.267 270.157 453.45 270.157C452.686 270.157 452.064 270.352 451.584 270.754C451.104 271.155 450.858 271.7 450.858 272.413C450.858 272.918 451.001 273.333 451.286 273.657C451.571 273.981 451.934 274.227 452.349 274.396C452.776 274.564 453.36 274.759 454.124 274.966C455.045 275.225 455.796 275.472 456.354 275.718C456.911 275.964 457.404 276.353 457.805 276.858C458.207 277.377 458.402 278.077 458.402 278.958C458.402 279.645 458.22 280.28 457.857 280.889C457.494 281.485 456.963 281.978 456.25 282.354C455.537 282.73 454.708 282.911 453.736 282.911C452.764 282.911 451.986 282.743 451.26 282.419L451.286 282.406Z" fill="#43454E"/>
<path d="M26.54 107.276C20.6816 113.134 11.1682 113.134 5.30978 107.276C-0.561592 101.404 -0.561592 91.9038 5.30978 86.0454C11.1682 80.174 20.6816 80.174 26.54 86.0454C32.4114 91.9038 32.4114 101.417 26.54 107.276ZM53.525 134.105C59.3056 128.247 59.2797 118.798 53.4472 112.966C50.0255 109.544 47.8999 105.319 47.0833 100.899C46.5519 98.0862 46.5519 95.2089 47.0833 92.3963C47.8869 88.0025 49.9866 83.7902 53.3694 80.3944C53.3954 80.3814 53.4213 80.3555 53.4472 80.3296C53.4731 80.3036 53.4861 80.2907 53.512 80.2648C59.3056 74.4063 59.2797 64.9577 53.4472 59.1252C47.5758 53.2668 38.0754 53.2668 32.217 59.1252C26.3456 64.9837 26.3456 74.4841 32.217 80.3296C35.6387 83.7513 37.7643 87.9766 38.5809 92.3963C39.1123 95.2089 39.1123 98.0862 38.5809 100.899C37.7643 105.319 35.6387 109.544 32.217 112.966C26.3456 118.824 26.3456 128.311 32.217 134.183C38.0494 140.015 47.4981 140.041 53.3824 134.248C53.4083 134.235 53.4342 134.209 53.4602 134.183L53.5379 134.105M107.262 134.183C113.133 128.311 113.133 118.811 107.262 112.953C101.39 107.094 91.9027 107.094 86.0313 112.953C80.1729 118.824 80.1729 128.324 86.0313 134.183C91.9027 140.041 101.39 140.041 107.262 134.183ZM450.717 119.316C450.186 122.129 450.186 125.006 450.717 127.819C451.534 132.239 453.659 136.464 457.068 139.886C462.926 145.744 462.926 155.245 457.068 161.09C451.223 166.948 441.722 166.948 435.877 161.09C430.018 155.245 430.018 145.744 435.877 139.886C439.298 136.464 441.424 132.239 442.228 127.819C442.759 125.006 442.759 122.129 442.228 119.316C441.411 114.897 439.285 110.671 435.877 107.25C432.455 103.828 428.23 101.702 423.81 100.899C420.997 100.367 418.12 100.367 415.32 100.899C410.901 101.715 406.675 103.841 403.267 107.25C399.845 110.671 397.732 114.897 396.916 119.316C396.384 122.129 396.384 125.006 396.916 127.819C397.732 132.239 399.858 136.464 403.267 139.886C409.112 145.744 409.112 155.245 403.267 161.09C397.408 166.948 387.921 166.948 382.062 161.09C376.217 155.245 376.217 145.744 382.062 139.886C385.484 136.464 387.597 132.239 388.413 127.819C388.945 125.006 388.945 122.129 388.413 119.316C387.597 114.897 385.471 110.671 382.062 107.25C378.641 103.828 374.415 101.715 370.009 100.899C367.196 100.367 364.319 100.367 361.519 100.899C357.099 101.715 352.874 103.841 349.452 107.25C346.031 110.671 343.905 114.897 343.101 119.316C342.57 122.129 342.57 125.006 343.101 127.819C343.918 132.239 346.043 136.464 349.452 139.886C355.311 145.744 355.311 155.245 349.452 161.09C343.607 166.948 334.106 166.948 328.261 161.09C322.402 155.245 322.402 145.744 328.261 139.886C331.683 136.464 333.795 132.239 334.612 127.819C335.143 125.006 335.143 122.129 334.612 119.316C333.795 114.897 331.67 110.671 328.261 107.25C324.852 103.828 320.614 101.702 316.194 100.899C313.382 100.367 310.504 100.367 307.705 100.899C303.285 101.715 299.06 103.841 295.651 107.25C292.229 110.671 290.103 114.897 289.3 119.316C288.768 122.129 288.768 125.006 289.3 127.819C290.116 132.239 292.242 136.464 295.651 139.886C301.496 145.744 301.496 155.245 295.651 161.09C289.792 166.948 280.305 166.948 274.447 161.09C268.601 155.245 268.601 145.744 274.447 139.886C277.868 136.464 279.994 132.239 280.797 127.819C281.329 125.006 281.329 122.129 280.797 119.316C279.981 114.897 277.855 110.671 274.447 107.25C271.025 103.828 266.812 101.715 262.393 100.899C259.58 100.367 256.703 100.367 253.903 100.899C249.471 101.715 245.258 103.841 241.836 107.25C238.415 110.658 236.302 114.897 235.486 119.316C234.954 122.129 234.954 125.006 235.486 127.819C236.302 132.239 238.428 136.464 241.836 139.886C247.695 145.744 247.695 155.245 241.836 161.09C235.991 166.948 226.491 166.948 220.645 161.09C217.223 157.668 212.998 155.543 208.578 154.726C205.766 154.208 202.888 154.208 200.089 154.726C195.669 155.543 191.444 157.668 188.035 161.077C182.177 166.935 172.689 166.935 166.831 161.077C160.985 155.232 160.985 145.731 166.831 139.873C172.689 134.027 182.177 134.027 188.035 139.873C191.457 143.294 195.682 145.407 200.089 146.224C202.901 146.755 205.779 146.755 208.578 146.224C212.998 145.407 217.223 143.282 220.645 139.873C224.067 136.451 226.192 132.226 226.996 127.806C227.527 124.993 227.527 122.116 226.996 119.304C226.179 114.884 224.054 110.658 220.645 107.237C217.223 103.815 212.998 101.689 208.578 100.886C205.766 100.354 202.888 100.354 200.089 100.886C195.669 101.702 191.444 103.828 188.035 107.237C182.177 113.082 172.689 113.082 166.831 107.237C163.409 103.815 159.184 101.702 154.777 100.886C151.964 100.354 149.087 100.354 146.287 100.886C141.868 101.702 137.642 103.828 134.221 107.237C130.799 110.658 128.673 114.884 127.87 119.304C127.338 122.116 127.338 124.993 127.87 127.806C128.686 132.226 130.812 136.451 134.221 139.873C140.079 145.731 140.079 155.232 134.221 161.077C128.375 166.935 118.875 166.935 113.029 161.077C107.171 155.232 107.171 145.731 113.029 139.873C116.451 136.451 118.564 132.226 119.38 127.806C119.912 124.993 119.912 122.116 119.38 119.304C118.564 114.884 116.438 110.658 113.029 107.237C109.621 103.815 105.382 101.689 100.963 100.886C98.15 100.354 95.2726 100.354 92.473 100.886C88.0533 101.702 83.828 103.828 80.4192 107.237C76.9975 110.658 74.8719 114.884 74.0683 119.304C73.5369 122.116 73.5369 124.993 74.0683 127.806C74.8848 132.226 77.0104 136.451 80.4192 139.873C86.2646 145.731 86.2646 155.232 80.4192 161.077C74.5608 166.935 65.0733 166.935 59.2149 161.077C53.3694 155.232 53.3694 145.731 59.2149 139.873C62.6366 136.451 64.7622 132.226 65.5658 127.806C66.0972 124.993 66.0972 122.116 65.5658 119.304C64.7493 114.884 62.6236 110.658 59.2149 107.237C53.3694 101.378 53.3694 91.8779 59.2149 86.0324C62.6366 82.6107 64.7622 78.3854 65.5658 73.9527C66.0972 71.1531 66.0972 68.2758 65.5658 65.4762C64.7493 61.0564 62.6366 56.8311 59.2149 53.4094C53.3694 47.564 53.3694 38.0635 59.2149 32.2051C65.0733 26.3596 74.5608 26.3596 80.4192 32.2051C86.2646 38.0635 86.2646 47.564 80.4192 53.4094C76.9975 56.8311 74.8719 61.0564 74.0683 65.4762C73.5369 68.2887 73.5369 71.1661 74.0683 73.9657C74.8848 78.3984 76.9975 82.6107 80.4192 86.0324C83.8409 89.4542 88.0662 91.5668 92.473 92.3834C95.2856 92.9148 98.1629 92.9148 100.963 92.3834C105.382 91.5668 109.608 89.4412 113.029 86.0324C116.451 82.6237 118.577 78.3854 119.38 73.9657C119.912 71.1661 119.912 68.2887 119.38 65.4762C118.564 61.0564 116.438 56.8311 113.016 53.4094C107.158 47.551 107.158 38.0635 113.016 32.2051C118.862 26.3596 128.362 26.3596 134.208 32.2051C140.066 38.0635 140.066 47.551 134.208 53.4094C130.786 56.8311 128.66 61.0694 127.844 65.4891C127.325 68.2887 127.325 71.1661 127.844 73.9657C128.66 78.3984 130.773 82.6237 134.195 86.0454C137.616 89.4671 141.842 91.5927 146.261 92.4093C149.074 92.9277 151.951 92.9277 154.751 92.4093C159.171 91.5927 163.396 89.4671 166.805 86.0584C170.227 82.6366 172.352 78.4113 173.156 73.9916C173.687 71.192 173.687 68.3146 173.156 65.5021C172.339 61.0824 170.214 56.8571 166.805 53.4353C160.959 47.5769 160.959 38.0894 166.805 32.231C172.663 26.3856 182.151 26.3856 188.009 32.231C191.431 35.6527 195.656 37.7784 200.063 38.5819C202.875 39.1133 205.753 39.1133 208.552 38.5819C212.972 37.7654 217.197 35.6527 220.619 32.231C226.465 26.3856 235.965 26.3856 241.811 32.231C247.669 38.0894 247.669 47.5769 241.811 53.4353C235.965 59.2937 226.465 59.2937 220.619 53.4353C217.197 50.0136 212.959 47.888 208.539 47.0714C205.727 46.553 202.85 46.553 200.05 47.0714C195.63 47.888 191.405 50.0136 187.996 53.4224C184.574 56.8441 182.449 61.0694 181.645 65.4891C181.114 68.3017 181.114 71.179 181.645 73.9786C182.462 78.4113 184.587 82.6237 187.996 86.0454C191.418 89.4671 195.643 91.5798 200.05 92.3963C202.862 92.9277 205.74 92.9277 208.539 92.3963C212.959 91.5798 217.184 89.4542 220.606 86.0324C226.452 80.174 235.952 80.174 241.798 86.0324C245.219 89.4542 249.445 91.5798 253.864 92.3834C256.677 92.9148 259.554 92.9148 262.354 92.3834C266.774 91.5668 270.999 89.4412 274.408 86.0324C277.829 82.6107 279.955 78.3854 280.759 73.9657C281.29 71.1661 281.29 68.2887 280.759 65.4762C279.942 61.0564 277.829 56.8311 274.408 53.4094C268.562 47.551 268.562 38.0635 274.408 32.2051C280.266 26.3596 289.754 26.3596 295.612 32.2051C299.034 35.6268 303.259 37.7524 307.666 38.556C310.478 39.0874 313.356 39.0874 316.155 38.556C320.575 37.7395 324.8 35.6268 328.222 32.2051C334.067 26.3596 343.568 26.3596 349.413 32.2051C355.272 38.0635 355.272 47.551 349.413 53.4094C345.992 56.8311 343.866 61.0694 343.049 65.4891C342.531 68.2887 342.531 71.1661 343.049 73.9657C343.866 78.3984 345.979 82.6237 349.4 86.0454C352.822 89.4671 357.047 91.5927 361.467 92.4093C364.28 92.9277 367.157 92.9277 369.957 92.4093C374.376 91.5927 378.602 89.4671 382.01 86.0584C385.432 82.6366 387.558 78.4113 388.361 73.9916C388.893 71.192 388.893 68.3146 388.361 65.5021C387.545 61.0824 385.419 56.8571 382.01 53.4353C376.165 47.5769 376.165 38.0894 382.01 32.231C387.869 26.3856 397.356 26.3856 403.215 32.231C406.637 35.6527 410.862 37.7784 415.269 38.5819C418.081 39.1133 420.958 39.1133 423.758 38.5819C428.178 37.7654 432.403 35.6527 435.825 32.231C441.67 26.3856 451.171 26.3856 457.016 32.231C462.875 38.0894 462.875 47.5769 457.016 53.4353C453.594 56.8571 451.469 61.0824 450.652 65.5021C450.134 68.3146 450.134 71.192 450.652 73.9916C451.469 78.4243 453.595 82.6366 457.003 86.0584C462.862 91.9168 462.862 101.404 457.003 107.263C453.582 110.684 451.469 114.91 450.652 119.329L450.717 119.316ZM334.599 65.4891C333.782 61.0694 331.657 56.8441 328.235 53.4224C324.813 50.0006 320.588 47.875 316.155 47.0714C313.356 46.54 310.478 46.54 307.666 47.0714C303.246 47.888 299.021 50.0136 295.612 53.4224C292.19 56.8441 290.065 61.0694 289.261 65.4891C288.73 68.3017 288.73 71.179 289.261 73.9786C290.078 78.4113 292.19 82.6237 295.612 86.0454C299.034 89.4671 303.259 91.5798 307.666 92.3963C310.478 92.9277 313.356 92.9277 316.155 92.3963C320.575 91.5798 324.8 89.4542 328.222 86.0454C331.644 82.6366 333.769 78.3984 334.573 73.9786C335.104 71.179 335.104 68.3017 334.573 65.4891H334.599ZM442.241 65.5021C441.424 61.0824 439.298 56.8571 435.877 53.4224C432.455 50.0006 428.217 47.875 423.797 47.0585C420.984 46.54 418.107 46.54 415.307 47.0585C410.888 47.875 406.662 50.0006 403.254 53.4094C399.832 56.8311 397.706 61.0564 396.903 65.4762C396.371 68.2887 396.371 71.1661 396.903 73.9657C397.719 78.3984 399.845 82.6107 403.254 86.0324C406.675 89.4542 410.901 91.5668 415.307 92.3834C418.12 92.9148 420.997 92.9148 423.797 92.3834C428.217 91.5668 432.442 89.4412 435.864 86.0195C439.285 82.5978 441.411 78.3724 442.215 73.9398C442.746 71.1402 442.746 68.2628 442.215 65.4632L442.241 65.5021ZM107.262 80.3555C113.133 74.4971 113.133 64.9837 107.262 59.1252C101.39 53.2539 91.9027 53.2539 86.0313 59.1252C80.1729 64.9837 80.1729 74.4971 86.0313 80.3555C91.9027 86.2269 101.39 86.2269 107.262 80.3555ZM214.903 134.17C220.762 128.299 220.762 118.798 214.903 112.94C209.045 107.081 199.544 107.081 193.686 112.94C190.264 116.361 186.039 118.487 181.619 119.304C178.807 119.835 175.929 119.835 173.117 119.304C168.697 118.487 164.472 116.361 161.05 112.94C155.192 107.081 145.691 107.081 139.833 112.94C133.974 118.811 133.974 128.311 139.833 134.17C145.691 140.028 155.192 140.028 161.05 134.17C164.472 130.735 168.697 128.623 173.117 127.806C175.929 127.275 178.807 127.275 181.619 127.806C186.039 128.623 190.264 130.748 193.686 134.17C199.544 140.028 209.032 140.028 214.903 134.17ZM214.89 187.984C220.762 182.126 220.762 172.612 214.89 166.754C209.019 160.883 199.532 160.883 193.66 166.754C187.802 172.612 187.802 182.126 193.66 187.984C199.532 193.856 209.019 193.856 214.89 187.984ZM161.089 80.3555C166.947 74.4971 166.947 64.9837 161.089 59.1252C155.218 53.2539 145.717 53.2539 139.859 59.1252C133.987 64.9837 133.987 74.4971 139.859 80.3555C145.717 86.2269 155.231 86.2269 161.089 80.3555ZM161.089 26.5411C166.947 20.6697 166.947 11.1693 161.089 5.31086C155.218 -0.547548 145.717 -0.547548 139.859 5.31086C133.987 11.1822 133.987 20.6827 139.859 26.5411C145.717 32.3995 155.218 32.3995 161.089 26.5411ZM268.718 80.3555C274.576 74.4971 274.576 64.9837 268.718 59.1252C262.859 53.2539 253.359 53.2539 247.5 59.1252C244.079 62.5599 239.853 64.6726 235.421 65.4891C232.621 66.0205 229.744 66.0205 226.944 65.4891C222.524 64.6726 218.286 62.547 214.864 59.1123C209.006 53.2409 199.506 53.2409 193.647 59.1123C187.789 64.9707 187.789 74.4841 193.647 80.3425C199.506 86.2139 208.993 86.2139 214.864 80.3425C218.286 76.9208 222.511 74.7952 226.931 73.9657C229.744 73.4472 232.621 73.4472 235.421 73.9657C239.853 74.7822 244.079 76.9078 247.487 80.3296C253.346 86.2009 262.833 86.2009 268.705 80.3296M268.718 134.183C274.576 128.311 274.576 118.811 268.718 112.953C262.846 107.094 253.346 107.094 247.487 112.953C241.616 118.824 241.616 128.324 247.487 134.183C253.359 140.041 262.859 140.041 268.718 134.183ZM322.532 134.183C328.403 128.311 328.403 118.811 322.532 112.953C316.674 107.094 307.173 107.094 301.302 112.953C295.443 118.824 295.443 128.324 301.302 134.183C307.173 140.041 316.674 140.041 322.532 134.183ZM322.532 80.3555C328.403 74.4971 328.403 64.9837 322.532 59.1252C316.674 53.2539 307.173 53.2539 301.302 59.1252C295.443 64.9837 295.443 74.4971 301.302 80.3555C307.173 86.2269 316.674 86.2269 322.532 80.3555ZM376.346 166.793C372.912 163.371 370.799 159.146 369.983 154.726C369.451 151.914 369.451 149.036 369.983 146.224C370.799 141.804 372.925 137.579 376.346 134.157C382.205 128.299 382.205 118.798 376.346 112.94C370.475 107.081 360.975 107.081 355.116 112.94C349.245 118.798 349.245 128.286 355.116 134.157C358.538 137.579 360.664 141.804 361.48 146.224C362.012 149.036 362.012 151.914 361.48 154.713C360.664 159.146 358.551 163.371 355.116 166.793C349.245 172.651 349.245 182.139 355.116 187.997C360.975 193.856 370.488 193.856 376.346 187.997C382.205 182.139 382.205 172.651 376.346 166.793ZM322.532 26.5411C328.403 20.6697 328.403 11.1693 322.532 5.31086C316.674 -0.547548 307.173 -0.547548 301.302 5.31086C295.443 11.1822 295.443 20.6827 301.302 26.5411C307.173 32.3995 316.674 32.3995 322.532 26.5411ZM376.346 80.3555C382.205 74.4971 382.205 64.9837 376.346 59.1252C370.475 53.2539 360.975 53.2539 355.116 59.1252C349.245 64.9837 349.245 74.4971 355.116 80.3555C360.975 86.2269 370.488 86.2269 376.346 80.3555ZM430.161 134.183C436.032 128.311 436.032 118.811 430.161 112.953C424.302 107.094 414.802 107.094 408.931 112.953C403.072 118.824 403.072 128.324 408.931 134.183C414.802 140.041 424.302 140.041 430.161 134.183ZM430.161 80.3555C436.032 74.4971 436.032 64.9837 430.161 59.1252C424.302 53.2539 414.802 53.2539 408.931 59.1252C403.072 64.9837 403.072 74.4971 408.931 80.3555C414.802 86.2269 424.302 86.2269 430.161 80.3555ZM483.975 112.966C480.554 109.544 478.441 105.319 477.611 100.899C477.08 98.0862 477.08 95.2089 477.611 92.3963C478.428 87.9636 480.554 83.7383 483.975 80.3296C489.834 74.4712 489.834 64.9707 483.975 59.1252C478.104 53.2668 468.603 53.2668 462.745 59.1252C456.874 64.9837 456.874 74.4712 462.745 80.3296C466.167 83.7513 468.292 87.9766 469.109 92.3963C469.64 95.2089 469.64 98.0862 469.109 100.899C468.292 105.319 466.167 109.544 462.745 112.966C456.874 118.824 456.874 128.324 462.745 134.183C468.603 140.041 478.117 140.041 483.975 134.183C489.834 128.324 489.834 118.837 483.975 112.966ZM510.882 107.276C516.741 101.404 516.741 91.9038 510.882 86.0454C505.024 80.187 495.511 80.174 489.652 86.0454C483.794 91.9038 483.794 101.417 489.652 107.276C495.524 113.134 505.024 113.134 510.882 107.276Z" fill="url(#paint0_linear_1337_11279)"/>
</g>
<defs>
<linearGradient id="paint0_linear_1337_11279" x1="83.2966" y1="-25.7439" x2="432.896" y2="219.052" gradientUnits="userSpaceOnUse">
<stop stop-color="#83C9F0"/>
<stop offset="0.51" stop-color="#575FA8"/>
<stop offset="0.55" stop-color="#5B56A2"/>
<stop offset="0.88" stop-color="#AA2585"/>
</linearGradient>
<clipPath id="clip0_1337_11279">
<rect width="514.36" height="281.981" fill="white" transform="translate(0.914062 0.917053)"/>
</clipPath>
</defs>
</svg>
